<?xml version="1.0" encoding="UTF-8" standalone="no"?>
<!DOCTYPE svg PUBLIC "-//W3C//DTD SVG 1.1//EN"
 "http://www.w3.org/Graphics/SVG/1.1/DTD/svg11.dtd">
<!-- Generated by graphviz version 12.1.1 (20240910.0053)
 -->
<!-- Title: PDA Pages: 1 -->
<svg width="2624pt" height="476pt"
 viewBox="0.00 0.00 2623.88 475.80" xmlns="http://www.w3.org/2000/svg" xmlns:xlink="http://www.w3.org/1999/xlink">
<g id="graph0" class="graph" transform="scale(1 1) rotate(0) translate(4 471.8)">
<title>PDA</title>
<polygon fill="white" stroke="none" points="-4,4 -4,-471.8 2619.88,-471.8 2619.88,4 -4,4"/>
<!-- accept -->
<g id="node1" class="node">
<title>accept</title>
<ellipse fill="none" stroke="black" cx="2580.19" cy="-260" rx="35.69" ry="18"/>
<text text-anchor="middle" x="2580.19" y="-255.8" font-family="Times,serif" font-size="14.00">accept</text>
</g>
<!-- q1 -->
<g id="node2" class="node">
<title>q1</title>
<polygon fill="none" stroke="black" points="121.59,-228 92.33,-210 121.59,-192 150.86,-210 121.59,-228"/>
<text text-anchor="middle" x="121.59" y="-205.8" font-family="Times,serif" font-size="14.00">q1</text>
</g>
<!-- q12 -->
<g id="node13" class="node">
<title>q12</title>
<polygon fill="none" stroke="black" points="229.95,-201 193.86,-183 229.95,-165 266.04,-183 229.95,-201"/>
<text text-anchor="middle" x="229.95" y="-178.8" font-family="Times,serif" font-size="14.00">q12</text>
</g>
<!-- q1&#45;&gt;q12 -->
<g id="edge2" class="edge">
<title>q1&#45;&gt;q12</title>
<path fill="none" stroke="black" d="M140.42,-203.23C148.94,-200.18 159.33,-196.7 168.86,-194.2 175.71,-192.4 183.08,-190.78 190.23,-189.36"/>
<polygon fill="black" stroke="black" points="190.87,-192.8 200.05,-187.52 189.58,-185.92 190.87,-192.8"/>
<text text-anchor="middle" x="172.36" y="-198.4" font-family="Times,serif" font-size="14.00">0</text>
</g>
<!-- q16 -->
<g id="node17" class="node">
<title>q16</title>
<polygon fill="none" stroke="black" points="229.95,-255 193.86,-237 229.95,-219 266.04,-237 229.95,-255"/>
<text text-anchor="middle" x="229.95" y="-232.8" font-family="Times,serif" font-size="14.00">q16</text>
</g>
<!-- q1&#45;&gt;q16 -->
<g id="edge3" class="edge">
<title>q1&#45;&gt;q16</title>
<path fill="none" stroke="black" d="M143.1,-215.21C157.52,-218.87 177.17,-223.86 194.03,-228.14"/>
<polygon fill="black" stroke="black" points="193.14,-231.52 203.7,-230.59 194.86,-224.74 193.14,-231.52"/>
<text text-anchor="middle" x="172.36" y="-227.7" font-family="Times,serif" font-size="14.00">1</text>
</g>
<!-- q2 -->
<g id="node3" class="node">
<title>q2</title>
<polygon fill="none" stroke="black" points="1462.86,-179 1433.6,-161 1462.86,-143 1492.13,-161 1462.86,-179"/>
<text text-anchor="middle" x="1462.86" y="-156.8" font-family="Times,serif" font-size="14.00">q2</text>
</g>
<!-- q9 -->
<g id="node10" class="node">
<title>q9</title>
<polygon fill="none" stroke="black" points="1679.58,-248 1650.31,-230 1679.58,-212 1708.84,-230 1679.58,-248"/>
<text text-anchor="middle" x="1679.58" y="-225.8" font-family="Times,serif" font-size="14.00">q9</text>
</g>
<!-- q2&#45;&gt;q9 -->
<g id="edge4" class="edge">
<title>q2&#45;&gt;q9</title>
<path fill="none" stroke="black" d="M1482.92,-167.12C1520.4,-179.17 1603.96,-206.02 1648.8,-220.43"/>
<polygon fill="black" stroke="black" points="1647.53,-223.7 1658.13,-223.43 1649.68,-217.04 1647.53,-223.7"/>
<text text-anchor="middle" x="1571.22" y="-211.01" font-family="Times,serif" font-size="14.00">0</text>
</g>
<!-- q10 -->
<g id="node11" class="node">
<title>q10</title>
<polygon fill="none" stroke="black" points="1571.22,-133 1535.13,-115 1571.22,-97 1607.31,-115 1571.22,-133"/>
<text text-anchor="middle" x="1571.22" y="-110.8" font-family="Times,serif" font-size="14.00">q10</text>
</g>
<!-- q2&#45;&gt;q10 -->
<g id="edge5" class="edge">
<title>q2&#45;&gt;q10</title>
<path fill="none" stroke="black" d="M1476.53,-150.84C1485.46,-144.13 1497.96,-135.6 1510.13,-130.2 1517.12,-127.1 1524.86,-124.55 1532.39,-122.48"/>
<polygon fill="black" stroke="black" points="1533.21,-125.88 1542.07,-120.07 1531.52,-119.09 1533.21,-125.88"/>
<text text-anchor="middle" x="1513.63" y="-134.4" font-family="Times,serif" font-size="14.00">1</text>
</g>
<!-- q3 -->
<g id="node4" class="node">
<title>q3</title>
<polygon fill="none" stroke="black" points="805.88,-450 776.62,-432 805.88,-414 835.15,-432 805.88,-450"/>
<text text-anchor="middle" x="805.88" y="-427.8" font-family="Times,serif" font-size="14.00">q3</text>
</g>
<!-- q8 -->
<g id="node9" class="node">
<title>q8</title>
<polygon fill="none" stroke="black" points="1781.11,-248 1751.84,-230 1781.11,-212 1810.37,-230 1781.11,-248"/>
<text text-anchor="middle" x="1781.11" y="-225.8" font-family="Times,serif" font-size="14.00">q8</text>
</g>
<!-- q3&#45;&gt;q8 -->
<g id="edge6" class="edge">
<title>q3&#45;&gt;q8</title>
<path fill="none" stroke="black" d="M827.16,-437.5C849.68,-443.11 887.19,-451 920.07,-451 920.07,-451 920.07,-451 1514.63,-451 1522.56,-451 1698.82,-299.96 1759.67,-247.61"/>
<polygon fill="black" stroke="black" points="1761.65,-250.53 1766.94,-241.35 1757.08,-245.22 1761.65,-250.53"/>
<text text-anchor="middle" x="1310.57" y="-455.2" font-family="Times,serif" font-size="14.00">0</text>
</g>
<!-- q30 -->
<g id="node31" class="node">
<title>q30</title>
<polygon fill="none" stroke="black" points="921.07,-273 884.98,-255 921.07,-237 957.16,-255 921.07,-273"/>
<text text-anchor="middle" x="921.07" y="-250.8" font-family="Times,serif" font-size="14.00">q30</text>
</g>
<!-- q3&#45;&gt;q30 -->
<g id="edge7" class="edge">
<title>q3&#45;&gt;q30</title>
<path fill="none" stroke="black" d="M817.02,-421.02C829.63,-407.04 851.4,-381.83 866.98,-358 883.59,-332.59 899.06,-301.36 908.97,-279.99"/>
<polygon fill="black" stroke="black" points="912.15,-281.44 913.12,-270.89 905.78,-278.53 912.15,-281.44"/>
<text text-anchor="middle" x="863.48" y="-370.75" font-family="Times,serif" font-size="14.00">1</text>
</g>
<!-- q4 -->
<g id="node5" class="node">
<title>q4</title>
<polygon fill="none" stroke="black" points="1144.62,-391 1115.35,-373 1144.62,-355 1173.88,-373 1144.62,-391"/>
<text text-anchor="middle" x="1144.62" y="-368.8" font-family="Times,serif" font-size="14.00">q4</text>
</g>
<!-- q11 -->
<g id="node12" class="node">
<title>q11</title>
<polygon fill="none" stroke="black" points="1252.97,-355 1216.88,-337 1252.97,-319 1289.07,-337 1252.97,-355"/>
<text text-anchor="middle" x="1252.97" y="-332.8" font-family="Times,serif" font-size="14.00">q11</text>
</g>
<!-- q4&#45;&gt;q11 -->
<g id="edge8" class="edge">
<title>q4&#45;&gt;q11</title>
<path fill="none" stroke="black" d="M1164.14,-366.73C1179.52,-361.52 1201.74,-354 1219.99,-347.83"/>
<polygon fill="black" stroke="black" points="1220.95,-351.19 1229.3,-344.67 1218.71,-344.56 1220.95,-351.19"/>
<text text-anchor="middle" x="1195.38" y="-361.36" font-family="Times,serif" font-size="14.00">0</text>
</g>
<!-- q13 -->
<g id="node14" class="node">
<title>q13</title>
<polygon fill="none" stroke="black" points="1889.47,-306 1853.37,-288 1889.47,-270 1925.56,-288 1889.47,-306"/>
<text text-anchor="middle" x="1889.47" y="-283.8" font-family="Times,serif" font-size="14.00">q13</text>
</g>
<!-- q4&#45;&gt;q13 -->
<g id="edge9" class="edge">
<title>q4&#45;&gt;q13</title>
<path fill="none" stroke="black" d="M1159.77,-382.08C1179.58,-393.88 1217.06,-413 1251.97,-413 1251.97,-413 1251.97,-413 1782.11,-413 1833.63,-413 1865.42,-350.65 1879.66,-314.02"/>
<polygon fill="black" stroke="black" points="1882.81,-315.59 1882.99,-305 1876.25,-313.17 1882.81,-315.59"/>
<text text-anchor="middle" x="1513.63" y="-417.2" font-family="Times,serif" font-size="14.00">1</text>
</g>
<!-- q5 -->
<g id="node6" class="node">
<title>q5</title>
<polygon fill="none" stroke="black" points="1361.33,-285 1332.07,-267 1361.33,-249 1390.6,-267 1361.33,-285"/>
<text text-anchor="middle" x="1361.33" y="-262.8" font-family="Times,serif" font-size="14.00">q5</text>
</g>
<!-- q5&#45;&gt;q2 -->
<g id="edge11" class="edge">
<title>q5&#45;&gt;q2</title>
<path fill="none" stroke="black" d="M1375.29,-257.36C1386.53,-248.71 1402.93,-235.35 1415.6,-222 1427.18,-209.8 1438.61,-194.75 1447.22,-182.65"/>
<polygon fill="black" stroke="black" points="1450.02,-184.76 1452.86,-174.56 1444.27,-180.76 1450.02,-184.76"/>
<text text-anchor="middle" x="1412.1" y="-232.92" font-family="Times,serif" font-size="14.00">1</text>
</g>
<!-- q5&#45;&gt;q8 -->
<g id="edge10" class="edge">
<title>q5&#45;&gt;q8</title>
<path fill="none" stroke="black" d="M1386.01,-270.35C1406.14,-272.91 1435.84,-276 1461.86,-276 1461.86,-276 1461.86,-276 1629.81,-276 1675.06,-276 1724.75,-256.7 1754.14,-243.1"/>
<polygon fill="black" stroke="black" points="1755.48,-246.34 1762.99,-238.88 1752.46,-240.03 1755.48,-246.34"/>
<text text-anchor="middle" x="1571.22" y="-280.2" font-family="Times,serif" font-size="14.00">0</text>
</g>
<!-- q6 -->
<g id="node7" class="node">
<title>q6</title>
<polygon fill="none" stroke="black" points="921.07,-197 891.81,-179 921.07,-161 950.34,-179 921.07,-197"/>
<text text-anchor="middle" x="921.07" y="-174.8" font-family="Times,serif" font-size="14.00">q6</text>
</g>
<!-- q6&#45;&gt;q2 -->
<g id="edge13" class="edge">
<title>q6&#45;&gt;q2</title>
<path fill="none" stroke="black" d="M936.04,-169.67C956.77,-156.75 997.31,-135 1035.26,-135 1035.26,-135 1035.26,-135 1196.38,-135 1279.77,-135 1377.2,-147.86 1427.66,-155.49"/>
<polygon fill="black" stroke="black" points="1426.94,-158.93 1437.36,-156.99 1428.01,-152.01 1426.94,-158.93"/>
<text text-anchor="middle" x="1195.38" y="-139.2" font-family="Times,serif" font-size="14.00">1</text>
</g>
<!-- q6&#45;&gt;q5 -->
<g id="edge12" class="edge">
<title>q6&#45;&gt;q5</title>
<path fill="none" stroke="black" d="M944.51,-183.08C977.88,-189.17 1042.53,-201.11 1097.35,-212 1180.58,-228.54 1278.32,-249.34 1327.92,-260"/>
<polygon fill="black" stroke="black" points="1326.89,-263.36 1337.41,-262.04 1328.37,-256.52 1326.89,-263.36"/>
<text text-anchor="middle" x="1144.62" y="-231.3" font-family="Times,serif" font-size="14.00">0</text>
</g>
<!-- q7 -->
<g id="node8" class="node">
<title>q7</title>
<polygon fill="none" stroke="black" points="805.88,-57 776.62,-39 805.88,-21 835.15,-39 805.88,-57"/>
<text text-anchor="middle" x="805.88" y="-34.8" font-family="Times,serif" font-size="14.00">q7</text>
</g>
<!-- q7&#45;&gt;q6 -->
<g id="edge15" class="edge">
<title>q7&#45;&gt;q6</title>
<path fill="none" stroke="black" d="M822.17,-47.36C835.27,-55.09 854.03,-67.58 866.98,-82.2 886.06,-103.75 901.02,-133.34 910.14,-154.11"/>
<polygon fill="black" stroke="black" points="906.88,-155.39 914,-163.24 913.33,-152.66 906.88,-155.39"/>
<text text-anchor="middle" x="863.48" y="-86.4" font-family="Times,serif" font-size="14.00">1</text>
</g>
<!-- q7&#45;&gt;q8 -->
<g id="edge14" class="edge">
<title>q7&#45;&gt;q8</title>
<path fill="none" stroke="black" d="M831.58,-36.25C854.48,-33.93 889.54,-31 920.07,-31 920.07,-31 920.07,-31 1629.81,-31 1715.32,-31 1758.35,-149.45 1773.55,-203.58"/>
<polygon fill="black" stroke="black" points="1770.08,-204.17 1776.06,-212.92 1776.84,-202.36 1770.08,-204.17"/>
<text text-anchor="middle" x="1310.57" y="-35.2" font-family="Times,serif" font-size="14.00">0</text>
</g>
<!-- q8&#45;&gt;q2 -->
<g id="edge17" class="edge">
<title>q8&#45;&gt;q2</title>
<path fill="none" stroke="black" d="M1766.65,-220.7C1741.6,-204.02 1685.52,-169.59 1632.31,-157.2 1586.57,-146.54 1531.94,-150.75 1497.56,-155.37"/>
<polygon fill="black" stroke="black" points="1497.19,-151.88 1487.8,-156.78 1498.19,-158.81 1497.19,-151.88"/>
<text text-anchor="middle" x="1628.81" y="-161.4" font-family="Times,serif" font-size="14.00">1</text>
</g>
<!-- q8&#45;&gt;q13 -->
<g id="edge16" class="edge">
<title>q8&#45;&gt;q13</title>
<path fill="none" stroke="black" d="M1798.07,-237.87C1808.72,-243.19 1822.97,-250.44 1835.37,-257.2 1844.29,-262.06 1853.92,-267.56 1862.5,-272.57"/>
<polygon fill="black" stroke="black" points="1860.63,-275.52 1871.02,-277.57 1864.17,-269.49 1860.63,-275.52"/>
<text text-anchor="middle" x="1831.87" y="-261.4" font-family="Times,serif" font-size="14.00">0</text>
</g>
<!-- q9&#45;&gt;q8 -->
<g id="edge18" class="edge">
<title>q9&#45;&gt;q8</title>
<path fill="none" stroke="black" d="M1709.63,-230C1719.04,-230 1729.64,-230 1739.71,-230"/>
<polygon fill="black" stroke="black" points="1739.68,-233.5 1749.68,-230 1739.68,-226.5 1739.68,-233.5"/>
<text text-anchor="middle" x="1730.34" y="-234.2" font-family="Times,serif" font-size="14.00">0</text>
</g>
<!-- q9&#45;&gt;q13 -->
<g id="edge19" class="edge">
<title>q9&#45;&gt;q13</title>
<path fill="none" stroke="black" d="M1696.12,-237.95C1704.96,-242.25 1716.33,-247.39 1726.84,-251 1768.12,-265.18 1817.2,-275.54 1850.36,-281.63"/>
<polygon fill="black" stroke="black" points="1849.43,-285.02 1859.9,-283.34 1850.67,-278.13 1849.43,-285.02"/>
<text text-anchor="middle" x="1781.11" y="-277.55" font-family="Times,serif" font-size="14.00">1</text>
</g>
<!-- q10&#45;&gt;q9 -->
<g id="edge20" class="edge">
<title>q10&#45;&gt;q9</title>
<path fill="none" stroke="black" d="M1582.45,-127.86C1592.89,-140.82 1609.73,-161.24 1625.31,-178 1636.07,-189.57 1648.69,-201.94 1658.95,-211.71"/>
<polygon fill="black" stroke="black" points="1656.47,-214.19 1666.15,-218.51 1661.28,-209.1 1656.47,-214.19"/>
<text text-anchor="middle" x="1628.81" y="-189.54" font-family="Times,serif" font-size="14.00">0</text>
</g>
<!-- q10&#45;&gt;q13 -->
<g id="edge21" class="edge">
<title>q10&#45;&gt;q13</title>
<path fill="none" stroke="black" d="M1598.34,-119.87C1644.62,-129.48 1742.51,-154.3 1810.37,-203 1835.05,-220.71 1857.88,-247.25 1872.41,-265.95"/>
<polygon fill="black" stroke="black" points="1869.46,-267.86 1878.29,-273.72 1875.04,-263.64 1869.46,-267.86"/>
<text text-anchor="middle" x="1730.34" y="-165.17" font-family="Times,serif" font-size="14.00">1</text>
</g>
<!-- q11&#45;&gt;q5 -->
<g id="edge22" class="edge">
<title>q11&#45;&gt;q5</title>
<path fill="none" stroke="black" d="M1269.21,-326.97C1286.9,-315.33 1316.28,-295.99 1336.88,-282.43"/>
<polygon fill="black" stroke="black" points="1338.78,-285.37 1345.21,-276.95 1334.93,-279.53 1338.78,-285.37"/>
<text text-anchor="middle" x="1310.57" y="-306.2" font-family="Times,serif" font-size="14.00">0</text>
</g>
<!-- q11&#45;&gt;q13 -->
<g id="edge23" class="edge">
<title>q11&#45;&gt;q13</title>
<path fill="none" stroke="black" d="M1289.91,-337C1310.52,-337 1336.88,-337 1360.33,-337 1360.33,-337 1360.33,-337 1629.81,-337 1712.32,-337 1807.09,-312.63 1855.79,-298.27"/>
<polygon fill="black" stroke="black" points="1856.57,-301.69 1865.14,-295.46 1854.56,-294.98 1856.57,-301.69"/>
<text text-anchor="middle" x="1571.22" y="-341.2" font-family="Times,serif" font-size="14.00">1</text>
</g>
<!-- q20 -->
<g id="node21" class="node">
<title>q20</title>
<polygon fill="none" stroke="black" points="460.32,-268 424.23,-250 460.32,-232 496.42,-250 460.32,-268"/>
<text text-anchor="middle" x="460.32" y="-245.8" font-family="Times,serif" font-size="14.00">q20</text>
</g>
<!-- q12&#45;&gt;q20 -->
<g id="edge24" class="edge">
<title>q12&#45;&gt;q20</title>
<path fill="none" stroke="black" d="M253.68,-189.67C294.12,-201.53 378.73,-226.36 425.84,-240.18"/>
<polygon fill="black" stroke="black" points="424.65,-243.47 435.23,-242.93 426.62,-236.76 424.65,-243.47"/>
<text text-anchor="middle" x="345.14" y="-230.62" font-family="Times,serif" font-size="14.00">0</text>
</g>
<!-- q21 -->
<g id="node22" class="node">
<title>q21</title>
<polygon fill="none" stroke="black" points="345.14,-132 309.04,-114 345.14,-96 381.23,-114 345.14,-132"/>
<text text-anchor="middle" x="345.14" y="-109.8" font-family="Times,serif" font-size="14.00">q21</text>
</g>
<!-- q12&#45;&gt;q21 -->
<g id="edge25" class="edge">
<title>q12&#45;&gt;q21</title>
<path fill="none" stroke="black" d="M247.17,-173.11C265.74,-161.79 296.42,-143.09 318.3,-129.75"/>
<polygon fill="black" stroke="black" points="319.94,-132.85 326.66,-124.66 316.3,-126.87 319.94,-132.85"/>
<text text-anchor="middle" x="287.54" y="-154.77" font-family="Times,serif" font-size="14.00">1</text>
</g>
<!-- q14 -->
<g id="node15" class="node">
<title>q14</title>
<polygon fill="none" stroke="black" points="2004.65,-343 1968.56,-325 2004.65,-307 2040.75,-325 2004.65,-343"/>
<text text-anchor="middle" x="2004.65" y="-320.8" font-family="Times,serif" font-size="14.00">q14</text>
</g>
<!-- q13&#45;&gt;q14 -->
<g id="edge26" class="edge">
<title>q13&#45;&gt;q14</title>
<path fill="none" stroke="black" d="M1912.29,-295.13C1928.97,-300.59 1952.22,-308.19 1971.09,-314.36"/>
<polygon fill="black" stroke="black" points="1969.87,-317.64 1980.46,-317.42 1972.04,-310.98 1969.87,-317.64"/>
<text text-anchor="middle" x="1947.06" y="-311.81" font-family="Times,serif" font-size="14.00">0</text>
</g>
<!-- q15 -->
<g id="node16" class="node">
<title>q15</title>
<polygon fill="none" stroke="black" points="2119.84,-299 2083.75,-281 2119.84,-263 2155.93,-281 2119.84,-299"/>
<text text-anchor="middle" x="2119.84" y="-276.8" font-family="Times,serif" font-size="14.00">q15</text>
</g>
<!-- q13&#45;&gt;q15 -->
<g id="edge27" class="edge">
<title>q13&#45;&gt;q15</title>
<path fill="none" stroke="black" d="M1920.09,-284.82C1934.67,-283.41 1952.52,-281.91 1968.56,-281.2 2003.65,-279.65 2043.4,-279.68 2073.2,-280.05"/>
<polygon fill="black" stroke="black" points="2072.94,-283.54 2082.99,-280.19 2073.04,-276.55 2072.94,-283.54"/>
<text text-anchor="middle" x="2004.65" y="-285.4" font-family="Times,serif" font-size="14.00">1</text>
</g>
<!-- q14&#45;&gt;q15 -->
<g id="edge29" class="edge">
<title>q14&#45;&gt;q15</title>
<path fill="none" stroke="black" d="M2025.89,-317.13C2043.19,-310.41 2068.36,-300.62 2088.14,-292.93"/>
<polygon fill="black" stroke="black" points="2089.32,-296.23 2097.37,-289.35 2086.78,-289.71 2089.32,-296.23"/>
<text text-anchor="middle" x="2062.25" y="-308.52" font-family="Times,serif" font-size="14.00">1</text>
</g>
<!-- q17 -->
<g id="node18" class="node">
<title>q17</title>
<polygon fill="none" stroke="black" points="2350.22,-310 2314.12,-292 2350.22,-274 2386.31,-292 2350.22,-310"/>
<text text-anchor="middle" x="2350.22" y="-287.8" font-family="Times,serif" font-size="14.00">q17</text>
</g>
<!-- q14&#45;&gt;q17 -->
<g id="edge28" class="edge">
<title>q14&#45;&gt;q17</title>
<path fill="none" stroke="black" d="M2041.05,-324.69C2092.11,-323.82 2189.3,-320.63 2271.12,-309 2285.36,-306.98 2300.87,-303.8 2314.29,-300.75"/>
<polygon fill="black" stroke="black" points="2315.05,-304.16 2323.98,-298.47 2313.44,-297.35 2315.05,-304.16"/>
<text text-anchor="middle" x="2177.43" y="-323.03" font-family="Times,serif" font-size="14.00">0</text>
</g>
<!-- q15&#45;&gt;q17 -->
<g id="edge30" class="edge">
<title>q15&#45;&gt;q17</title>
<path fill="none" stroke="black" d="M2153.56,-282.58C2193.41,-284.5 2260.89,-287.75 2305.25,-289.88"/>
<polygon fill="black" stroke="black" points="2304.89,-293.37 2315.04,-290.35 2305.22,-286.38 2304.89,-293.37"/>
<text text-anchor="middle" x="2235.03" y="-292.33" font-family="Times,serif" font-size="14.00">0</text>
</g>
<!-- q18 -->
<g id="node19" class="node">
<title>q18</title>
<polygon fill="none" stroke="black" points="2235.03,-256 2198.93,-238 2235.03,-220 2271.12,-238 2235.03,-256"/>
<text text-anchor="middle" x="2235.03" y="-233.8" font-family="Times,serif" font-size="14.00">q18</text>
</g>
<!-- q15&#45;&gt;q18 -->
<g id="edge31" class="edge">
<title>q15&#45;&gt;q18</title>
<path fill="none" stroke="black" d="M2141.34,-273.21C2158.57,-266.67 2183.45,-257.21 2203.1,-249.75"/>
<polygon fill="black" stroke="black" points="2204.16,-253.09 2212.27,-246.27 2201.68,-246.55 2204.16,-253.09"/>
<text text-anchor="middle" x="2177.43" y="-264.99" font-family="Times,serif" font-size="14.00">1</text>
</g>
<!-- q22 -->
<g id="node23" class="node">
<title>q22</title>
<polygon fill="none" stroke="black" points="345.14,-292 309.04,-274 345.14,-256 381.23,-274 345.14,-292"/>
<text text-anchor="middle" x="345.14" y="-269.8" font-family="Times,serif" font-size="14.00">q22</text>
</g>
<!-- q16&#45;&gt;q22 -->
<g id="edge32" class="edge">
<title>q16&#45;&gt;q22</title>
<path fill="none" stroke="black" d="M252.77,-244.13C269.45,-249.59 292.7,-257.19 311.57,-263.36"/>
<polygon fill="black" stroke="black" points="310.35,-266.64 320.94,-266.42 312.52,-259.98 310.35,-266.64"/>
<text text-anchor="middle" x="287.54" y="-260.81" font-family="Times,serif" font-size="14.00">0</text>
</g>
<!-- q23 -->
<g id="node24" class="node">
<title>q23</title>
<polygon fill="none" stroke="black" points="460.32,-132 424.23,-114 460.32,-96 496.42,-114 460.32,-132"/>
<text text-anchor="middle" x="460.32" y="-109.8" font-family="Times,serif" font-size="14.00">q23</text>
</g>
<!-- q16&#45;&gt;q23 -->
<g id="edge33" class="edge">
<title>q16&#45;&gt;q23</title>
<path fill="none" stroke="black" d="M245.85,-226.48C261.31,-215.77 286.35,-198.96 309.04,-186.2 349.71,-163.33 398.75,-140.63 429.49,-126.96"/>
<polygon fill="black" stroke="black" points="430.82,-130.2 438.56,-122.96 428,-123.79 430.82,-130.2"/>
<text text-anchor="middle" x="345.14" y="-190.4" font-family="Times,serif" font-size="14.00">1</text>
</g>
<!-- q19 -->
<g id="node20" class="node">
<title>q19</title>
<polygon fill="none" stroke="black" points="2465.4,-278 2429.31,-260 2465.4,-242 2501.5,-260 2465.4,-278"/>
<text text-anchor="middle" x="2465.4" y="-255.8" font-family="Times,serif" font-size="14.00">q19</text>
</g>
<!-- q17&#45;&gt;q19 -->
<g id="edge34" class="edge">
<title>q17&#45;&gt;q19</title>
<path fill="none" stroke="black" d="M2365.19,-281.24C2375.41,-274.05 2389.94,-265.22 2404.31,-261.2 2409.88,-259.64 2415.86,-258.7 2421.81,-258.18"/>
<polygon fill="black" stroke="black" points="2421.75,-261.69 2431.57,-257.73 2421.42,-254.7 2421.75,-261.69"/>
<text text-anchor="middle" x="2407.81" y="-265.4" font-family="Times,serif" font-size="14.00">0</text>
</g>
<!-- q17&#45;&gt;q19 -->
<g id="edge35" class="edge">
<title>q17&#45;&gt;q19</title>
<path fill="none" stroke="black" d="M2376.5,-286.69C2387.29,-284.27 2399.98,-281.23 2411.31,-278 2418.37,-275.99 2425.89,-273.59 2432.97,-271.22"/>
<polygon fill="black" stroke="black" points="2433.86,-274.62 2442.19,-268.06 2431.59,-267.99 2433.86,-274.62"/>
<text text-anchor="middle" x="2407.81" y="-283.98" font-family="Times,serif" font-size="14.00">1</text>
</g>
<!-- q18&#45;&gt;q17 -->
<g id="edge36" class="edge">
<title>q18&#45;&gt;q17</title>
<path fill="none" stroke="black" d="M2257.23,-245.26C2268.89,-249.48 2283.52,-255.16 2296.12,-261.2 2305.28,-265.59 2314.97,-270.98 2323.53,-276.01"/>
<polygon fill="black" stroke="black" points="2321.64,-278.95 2332.01,-281.11 2325.24,-272.96 2321.64,-278.95"/>
<text text-anchor="middle" x="2292.62" y="-265.4" font-family="Times,serif" font-size="14.00">0</text>
</g>
<!-- q18&#45;&gt;q19 -->
<g id="edge37" class="edge">
<title>q18&#45;&gt;q19</title>
<path fill="none" stroke="black" d="M2269.23,-239.47C2299.72,-241 2346.15,-243.81 2386.31,-248.2 2399.46,-249.64 2413.79,-251.67 2426.54,-253.64"/>
<polygon fill="black" stroke="black" points="2425.81,-257.07 2436.23,-255.18 2426.9,-250.15 2425.81,-257.07"/>
<text text-anchor="middle" x="2350.22" y="-252.4" font-family="Times,serif" font-size="14.00">1</text>
</g>
<!-- q19&#45;&gt;accept -->
<g id="edge40" class="edge">
<title>q19&#45;&gt;accept</title>
<path fill="none" stroke="black" d="M2502.4,-260C2512.14,-260 2522.82,-260 2533.04,-260"/>
<polygon fill="black" stroke="black" points="2532.79,-263.5 2542.79,-260 2532.79,-256.5 2532.79,-263.5"/>
<text text-anchor="middle" x="2523" y="-264.2" font-family="Times,serif" font-size="14.00">ε</text>
</g>
<!-- q19&#45;&gt;q19 -->
<g id="edge38" class="edge">
<title>q19&#45;&gt;q19</title>
<path fill="none" stroke="black" d="M2460.43,-275.92C2459.13,-286.15 2460.79,-296 2465.4,-296 2468.21,-296 2469.93,-292.34 2470.54,-287.17"/>
<polygon fill="black" stroke="black" points="2474.05,-287.38 2470.4,-277.43 2467.05,-287.48 2474.05,-287.38"/>
<text text-anchor="middle" x="2465.4" y="-300.2" font-family="Times,serif" font-size="14.00">0</text>
</g>
<!-- q19&#45;&gt;q19 -->
<g id="edge39" class="edge">
<title>q19&#45;&gt;q19</title>
<path fill="none" stroke="black" d="M2457.74,-274.65C2451.77,-292.68 2454.32,-314 2465.4,-314 2474.23,-314 2477.65,-300.46 2475.65,-285.84"/>
<polygon fill="black" stroke="black" points="2479.06,-285.08 2473.4,-276.13 2472.24,-286.66 2479.06,-285.08"/>
<text text-anchor="middle" x="2465.4" y="-318.2" font-family="Times,serif" font-size="14.00">1</text>
</g>
<!-- q24 -->
<g id="node25" class="node">
<title>q24</title>
<polygon fill="none" stroke="black" points="805.88,-242 769.79,-224 805.88,-206 841.98,-224 805.88,-242"/>
<text text-anchor="middle" x="805.88" y="-219.8" font-family="Times,serif" font-size="14.00">q24</text>
</g>
<!-- q20&#45;&gt;q24 -->
<g id="edge41" class="edge">
<title>q20&#45;&gt;q24</title>
<path fill="none" stroke="black" d="M493.6,-248.24C547.25,-245.21 658.16,-238.51 751.79,-230 755.96,-229.62 760.31,-229.19 764.65,-228.73"/>
<polygon fill="black" stroke="black" points="764.91,-232.23 774.47,-227.66 764.15,-225.27 764.91,-232.23"/>
<text text-anchor="middle" x="633.1" y="-243.69" font-family="Times,serif" font-size="14.00">0</text>
</g>
<!-- q25 -->
<g id="node26" class="node">
<title>q25</title>
<polygon fill="none" stroke="black" points="575.51,-307 539.42,-289 575.51,-271 611.6,-289 575.51,-307"/>
<text text-anchor="middle" x="575.51" y="-284.8" font-family="Times,serif" font-size="14.00">q25</text>
</g>
<!-- q20&#45;&gt;q25 -->
<g id="edge42" class="edge">
<title>q20&#45;&gt;q25</title>
<path fill="none" stroke="black" d="M482.61,-257.34C499.53,-263.16 523.45,-271.41 542.65,-278.02"/>
<polygon fill="black" stroke="black" points="541.29,-281.26 551.88,-281.2 543.57,-274.64 541.29,-281.26"/>
<text text-anchor="middle" x="517.92" y="-274.87" font-family="Times,serif" font-size="14.00">1</text>
</g>
<!-- q21&#45;&gt;q23 -->
<g id="edge44" class="edge">
<title>q21&#45;&gt;q23</title>
<path fill="none" stroke="black" d="M382.26,-114C391.65,-114 401.92,-114 411.8,-114"/>
<polygon fill="black" stroke="black" points="411.64,-117.5 421.64,-114 411.64,-110.5 411.64,-117.5"/>
<text text-anchor="middle" x="402.73" y="-118.2" font-family="Times,serif" font-size="14.00">1</text>
</g>
<!-- q26 -->
<g id="node27" class="node">
<title>q26</title>
<polygon fill="none" stroke="black" points="690.7,-211 654.6,-193 690.7,-175 726.79,-193 690.7,-211"/>
<text text-anchor="middle" x="690.7" y="-188.8" font-family="Times,serif" font-size="14.00">q26</text>
</g>
<!-- q21&#45;&gt;q26 -->
<g id="edge43" class="edge">
<title>q21&#45;&gt;q26</title>
<path fill="none" stroke="black" d="M365.07,-122.24C375.1,-126.42 387.7,-131.36 399.23,-135 410.12,-138.44 413.06,-138.57 424.23,-141 505.12,-158.62 600.47,-176.63 652.02,-186.14"/>
<polygon fill="black" stroke="black" points="651.29,-189.56 661.76,-187.93 652.55,-182.68 651.29,-189.56"/>
<text text-anchor="middle" x="517.92" y="-164.96" font-family="Times,serif" font-size="14.00">0</text>
</g>
<!-- q22&#45;&gt;q20 -->
<g id="edge45" class="edge">
<title>q22&#45;&gt;q20</title>
<path fill="none" stroke="black" d="M371.54,-268.61C386.68,-265.4 406.16,-261.27 422.92,-257.72"/>
<polygon fill="black" stroke="black" points="423.47,-261.18 432.53,-255.68 422.02,-254.33 423.47,-261.18"/>
<text text-anchor="middle" x="402.73" y="-266.92" font-family="Times,serif" font-size="14.00">0</text>
</g>
<!-- q27 -->
<g id="node28" class="node">
<title>q27</title>
<polygon fill="none" stroke="black" points="805.88,-358 769.79,-340 805.88,-322 841.98,-340 805.88,-358"/>
<text text-anchor="middle" x="805.88" y="-335.8" font-family="Times,serif" font-size="14.00">q27</text>
</g>
<!-- q22&#45;&gt;q27 -->
<g id="edge46" class="edge">
<title>q22&#45;&gt;q27</title>
<path fill="none" stroke="black" d="M356.58,-286.54C375.02,-307.17 415.54,-346 459.32,-346 459.32,-346 459.32,-346 691.7,-346 715.27,-346 741.57,-344.69 762.88,-343.29"/>
<polygon fill="black" stroke="black" points="762.92,-346.79 772.65,-342.61 762.43,-339.81 762.92,-346.79"/>
<text text-anchor="middle" x="575.51" y="-350.2" font-family="Times,serif" font-size="14.00">1</text>
</g>
<!-- q28 -->
<g id="node29" class="node">
<title>q28</title>
<polygon fill="none" stroke="black" points="575.51,-132 539.42,-114 575.51,-96 611.6,-114 575.51,-132"/>
<text text-anchor="middle" x="575.51" y="-109.8" font-family="Times,serif" font-size="14.00">q28</text>
</g>
<!-- q23&#45;&gt;q28 -->
<g id="edge47" class="edge">
<title>q23&#45;&gt;q28</title>
<path fill="none" stroke="black" d="M497.45,-114C506.84,-114 517.1,-114 526.99,-114"/>
<polygon fill="black" stroke="black" points="526.83,-117.5 536.83,-114 526.83,-110.5 526.83,-117.5"/>
<text text-anchor="middle" x="517.92" y="-118.2" font-family="Times,serif" font-size="14.00">0</text>
</g>
<!-- q29 -->
<g id="node30" class="node">
<title>q29</title>
<polygon fill="none" stroke="black" points="805.88,-131 769.79,-113 805.88,-95 841.98,-113 805.88,-131"/>
<text text-anchor="middle" x="805.88" y="-108.8" font-family="Times,serif" font-size="14.00">q29</text>
</g>
<!-- q23&#45;&gt;q29 -->
<g id="edge48" class="edge">
<title>q23&#45;&gt;q29</title>
<path fill="none" stroke="black" d="M480.53,-105.68C511.28,-92.88 573.81,-69.02 629.6,-61.2 684.05,-53.57 745.08,-79.99 778.85,-97.87"/>
<polygon fill="black" stroke="black" points="777.03,-100.86 787.48,-102.59 780.39,-94.72 777.03,-100.86"/>
<text text-anchor="middle" x="633.1" y="-65.4" font-family="Times,serif" font-size="14.00">1</text>
</g>
<!-- q24&#45;&gt;q6 -->
<g id="edge49" class="edge">
<title>q24&#45;&gt;q6</title>
<path fill="none" stroke="black" d="M826.86,-216.06C844.96,-208.86 871.81,-198.19 892.06,-190.14"/>
<polygon fill="black" stroke="black" points="893.12,-193.48 901.12,-186.54 890.53,-186.98 893.12,-193.48"/>
<text text-anchor="middle" x="863.48" y="-207.05" font-family="Times,serif" font-size="14.00">0</text>
</g>
<!-- q24&#45;&gt;q30 -->
<g id="edge50" class="edge">
<title>q24&#45;&gt;q30</title>
<path fill="none" stroke="black" d="M830.06,-230.35C846.16,-234.76 867.88,-240.71 885.95,-245.65"/>
<polygon fill="black" stroke="black" points="884.89,-248.99 895.46,-248.26 886.74,-242.24 884.89,-248.99"/>
<text text-anchor="middle" x="863.48" y="-244.63" font-family="Times,serif" font-size="14.00">1</text>
</g>
<!-- q25&#45;&gt;q6 -->
<g id="edge52" class="edge">
<title>q25&#45;&gt;q6</title>
<path fill="none" stroke="black" d="M602.41,-293.99C656.58,-302.94 783.7,-316.01 866.98,-261 880.92,-251.79 876.1,-242.15 884.98,-228 890.81,-218.7 897.76,-208.79 903.93,-200.33"/>
<polygon fill="black" stroke="black" points="906.66,-202.53 909.8,-192.41 901.03,-198.37 906.66,-202.53"/>
<text text-anchor="middle" x="748.29" y="-303.83" font-family="Times,serif" font-size="14.00">1</text>
</g>
<!-- q31 -->
<g id="node32" class="node">
<title>q31</title>
<polygon fill="none" stroke="black" points="690.7,-410 654.6,-392 690.7,-374 726.79,-392 690.7,-410"/>
<text text-anchor="middle" x="690.7" y="-387.8" font-family="Times,serif" font-size="14.00">q31</text>
</g>
<!-- q25&#45;&gt;q31 -->
<g id="edge51" class="edge">
<title>q25&#45;&gt;q31</title>
<path fill="none" stroke="black" d="M589.05,-300.42C608.35,-317.97 645.51,-351.79 668.88,-373.06"/>
<polygon fill="black" stroke="black" points="666.22,-375.37 675.98,-379.51 670.93,-370.19 666.22,-375.37"/>
<text text-anchor="middle" x="633.1" y="-347.79" font-family="Times,serif" font-size="14.00">0</text>
</g>
<!-- q26&#45;&gt;q24 -->
<g id="edge53" class="edge">
<title>q26&#45;&gt;q24</title>
<path fill="none" stroke="black" d="M714.87,-199.35C730.97,-203.76 752.69,-209.71 770.76,-214.65"/>
<polygon fill="black" stroke="black" points="769.71,-217.99 780.28,-217.26 771.56,-211.24 769.71,-217.99"/>
<text text-anchor="middle" x="748.29" y="-213.63" font-family="Times,serif" font-size="14.00">0</text>
</g>
<!-- q26&#45;&gt;q29 -->
<g id="edge54" class="edge">
<title>q26&#45;&gt;q29</title>
<path fill="none" stroke="black" d="M707.75,-183.08C719.99,-175.4 737.18,-164.36 751.79,-154 761.94,-146.8 772.87,-138.47 782.16,-131.2"/>
<polygon fill="black" stroke="black" points="784.28,-133.99 789.96,-125.05 779.94,-128.5 784.28,-133.99"/>
<text text-anchor="middle" x="748.29" y="-162.65" font-family="Times,serif" font-size="14.00">1</text>
</g>
<!-- q27&#45;&gt;q6 -->
<g id="edge55" class="edge">
<title>q27&#45;&gt;q6</title>
<path fill="none" stroke="black" d="M837.25,-342.9C847.91,-342.28 859.16,-339.51 866.98,-332 900.79,-299.48 866.86,-271.27 884.98,-228 889.32,-217.62 896.21,-207.32 902.73,-198.85"/>
<polygon fill="black" stroke="black" points="905.24,-201.32 908.84,-191.35 899.81,-196.9 905.24,-201.32"/>
<text text-anchor="middle" x="863.48" y="-340.96" font-family="Times,serif" font-size="14.00">0</text>
</g>
<!-- q27&#45;&gt;q6 -->
<g id="edge56" class="edge">
<title>q27&#45;&gt;q6</title>
<path fill="none" stroke="black" d="M823.84,-330.54C837.43,-322.12 855.98,-308.58 866.98,-292 883.31,-267.37 872.18,-254.63 884.98,-228 889.8,-217.97 896.67,-207.81 903.06,-199.37"/>
<polygon fill="black" stroke="black" points="905.79,-201.55 909.24,-191.54 900.3,-197.22 905.79,-201.55"/>
<text text-anchor="middle" x="863.48" y="-304.47" font-family="Times,serif" font-size="14.00">1</text>
</g>
<!-- q28&#45;&gt;q6 -->
<g id="edge57" class="edge">
<title>q28&#45;&gt;q6</title>
<path fill="none" stroke="black" d="M610.22,-115.17C645.83,-117 703.41,-121.61 751.79,-133.2 760.11,-135.19 761.64,-137.41 769.79,-140 810.11,-152.81 857.48,-164.57 888.09,-171.75"/>
<polygon fill="black" stroke="black" points="886.95,-175.08 897.49,-173.93 888.54,-168.26 886.95,-175.08"/>
<text text-anchor="middle" x="748.29" y="-137.4" font-family="Times,serif" font-size="14.00">0</text>
</g>
<!-- q32 -->
<g id="node33" class="node">
<title>q32</title>
<polygon fill="none" stroke="black" points="690.7,-36 654.6,-18 690.7,0 726.79,-18 690.7,-36"/>
<text text-anchor="middle" x="690.7" y="-13.8" font-family="Times,serif" font-size="14.00">q32</text>
</g>
<!-- q28&#45;&gt;q32 -->
<g id="edge58" class="edge">
<title>q28&#45;&gt;q32</title>
<path fill="none" stroke="black" d="M596.08,-105.94C608.44,-100.3 624.33,-92.01 636.6,-82 651.05,-70.23 664.43,-54.05 674.14,-40.91"/>
<polygon fill="black" stroke="black" points="676.97,-42.98 679.93,-32.81 671.27,-38.91 676.97,-42.98"/>
<text text-anchor="middle" x="633.1" y="-90.66" font-family="Times,serif" font-size="14.00">1</text>
</g>
<!-- q29&#45;&gt;q6 -->
<g id="edge59" class="edge">
<title>q29&#45;&gt;q6</title>
<path fill="none" stroke="black" d="M826.55,-104.91C838.79,-101.17 854.52,-98.82 866.98,-105.2 887.1,-115.51 901.33,-137.4 909.96,-154.67"/>
<polygon fill="black" stroke="black" points="906.58,-155.72 913.97,-163.31 912.93,-152.77 906.58,-155.72"/>
<text text-anchor="middle" x="863.48" y="-109.4" font-family="Times,serif" font-size="14.00">0</text>
</g>
<!-- q29&#45;&gt;q6 -->
<g id="edge60" class="edge">
<title>q29&#45;&gt;q6</title>
<path fill="none" stroke="black" d="M824.69,-122.1C836.75,-128.36 852.98,-137.01 866.98,-145.2 876.84,-150.97 887.51,-157.67 896.68,-163.58"/>
<polygon fill="black" stroke="black" points="894.71,-166.47 905,-168.99 898.53,-160.6 894.71,-166.47"/>
<text text-anchor="middle" x="863.48" y="-149.4" font-family="Times,serif" font-size="14.00">1</text>
</g>
<!-- q30&#45;&gt;q2 -->
<g id="edge62" class="edge">
<title>q30&#45;&gt;q2</title>
<path fill="none" stroke="black" d="M942.97,-262.57C952.64,-265.74 964.35,-269.12 975.16,-271 1025.67,-279.79 1039.1,-275.67 1090.35,-277 1226.43,-280.54 1378.41,-206.67 1436.99,-175.03"/>
<polygon fill="black" stroke="black" points="1438.4,-178.25 1445.49,-170.37 1435.04,-172.11 1438.4,-178.25"/>
<text text-anchor="middle" x="1195.38" y="-271.37" font-family="Times,serif" font-size="14.00">1</text>
</g>
<!-- q33 -->
<g id="node34" class="node">
<title>q33</title>
<polygon fill="none" stroke="black" points="1036.26,-263 1000.16,-245 1036.26,-227 1072.35,-245 1036.26,-263"/>
<text text-anchor="middle" x="1036.26" y="-240.8" font-family="Times,serif" font-size="14.00">q33</text>
</g>
<!-- q30&#45;&gt;q33 -->
<g id="edge61" class="edge">
<title>q30&#45;&gt;q33</title>
<path fill="none" stroke="black" d="M952.7,-252.29C965.16,-251.19 979.76,-249.9 993.19,-248.72"/>
<polygon fill="black" stroke="black" points="993.44,-252.21 1003.09,-247.84 992.83,-245.24 993.44,-252.21"/>
<text text-anchor="middle" x="978.66" y="-254.5" font-family="Times,serif" font-size="14.00">0</text>
</g>
<!-- q31&#45;&gt;q3 -->
<g id="edge63" class="edge">
<title>q31&#45;&gt;q3</title>
<path fill="none" stroke="black" d="M712.72,-399.43C730.46,-405.7 756.05,-414.74 775.76,-421.71"/>
<polygon fill="black" stroke="black" points="774.57,-425 785.16,-425.03 776.9,-418.4 774.57,-425"/>
<text text-anchor="middle" x="748.29" y="-417.4" font-family="Times,serif" font-size="14.00">0</text>
</g>
<!-- q31&#45;&gt;q4 -->
<g id="edge64" class="edge">
<title>q31&#45;&gt;q4</title>
<path fill="none" stroke="black" d="M722.42,-389.49C745.17,-387.85 776.94,-386 804.88,-386 804.88,-386 804.88,-386 1037.26,-386 1061.94,-386 1089.61,-382.51 1110.54,-379.14"/>
<polygon fill="black" stroke="black" points="1110.94,-382.62 1120.22,-377.51 1109.78,-375.72 1110.94,-382.62"/>
<text text-anchor="middle" x="921.07" y="-390.2" font-family="Times,serif" font-size="14.00">1</text>
</g>
<!-- q32&#45;&gt;q2 -->
<g id="edge66" class="edge">
<title>q32&#45;&gt;q2</title>
<path fill="none" stroke="black" d="M722.08,-15.12C736.52,-13.89 754.03,-12.6 769.79,-12 801.85,-10.77 810.09,-8.42 841.98,-12 955.61,-24.75 978.51,-69 1092.85,-69 1092.85,-69 1092.85,-69 1311.57,-69 1366.26,-69 1417.87,-113.87 1444.02,-140.94"/>
<polygon fill="black" stroke="black" points="1441.46,-143.33 1450.85,-148.24 1446.57,-138.55 1441.46,-143.33"/>
<text text-anchor="middle" x="1093.85" y="-73.2" font-family="Times,serif" font-size="14.00">1</text>
</g>
<!-- q32&#45;&gt;q7 -->
<g id="edge65" class="edge">
<title>q32&#45;&gt;q7</title>
<path fill="none" stroke="black" d="M717.95,-22.87C733.87,-25.82 754.33,-29.62 771.41,-32.79"/>
<polygon fill="black" stroke="black" points="770.63,-36.2 781.1,-34.59 771.91,-29.32 770.63,-36.2"/>
<text text-anchor="middle" x="748.29" y="-33.33" font-family="Times,serif" font-size="14.00">0</text>
</g>
<!-- q33&#45;&gt;q4 -->
<g id="edge68" class="edge">
<title>q33&#45;&gt;q4</title>
<path fill="none" stroke="black" d="M1047.84,-257.74C1066.36,-280.03 1104.77,-326.25 1126.91,-352.89"/>
<polygon fill="black" stroke="black" points="1123.95,-354.81 1133.03,-360.26 1129.33,-350.33 1123.95,-354.81"/>
<text text-anchor="middle" x="1093.85" y="-320.86" font-family="Times,serif" font-size="14.00">1</text>
</g>
<!-- q33&#45;&gt;q8 -->
<g id="edge67" class="edge">
<title>q33&#45;&gt;q8</title>
<path fill="none" stroke="black" d="M1062.62,-239.62C1090.2,-233.6 1135.46,-223.21 1173.88,-212 1366.23,-155.89 1416,-28.44 1607.31,-88 1659.65,-104.29 1666.82,-122.81 1708.84,-158 1719.56,-166.98 1744.45,-192.57 1761.78,-210.68"/>
<polygon fill="black" stroke="black" points="1759.1,-212.95 1768.54,-217.77 1764.17,-208.12 1759.1,-212.95"/>
<text text-anchor="middle" x="1412.1" y="-101.57" font-family="Times,serif" font-size="14.00">0</text>
</g>
<!-- start -->
<g id="node35" class="node">
<title>start</title>
<ellipse fill="none" stroke="black" cx="27.66" cy="-210" rx="27.66" ry="18"/>
<text text-anchor="middle" x="27.66" y="-205.8" font-family="Times,serif" font-size="14.00">start</text>
</g>
<!-- start&#45;&gt;q1 -->
<g id="edge1" class="edge">
<title>start&#45;&gt;q1</title>
<path fill="none" stroke="black" d="M55.75,-210C63.38,-210 71.85,-210 80.08,-210"/>
<polygon fill="black" stroke="black" points="79.94,-213.5 89.94,-210 79.94,-206.5 79.94,-213.5"/>
</g>
</g>
</svg>
